<svg width="220" height="64" viewBox="0 0 220 64" fill="none" xmlns="http://www.w3.org/2000/svg">
<path d="M87.3489 31.9021C86.9959 41.4924 78.6415 49.3211 68.6789 49.3211H62.7955C61.3835 49.3211 59.9715 49.9083 58.9517 50.8868L47.3025 62.4734V13.1914H69.1104C74.0916 13.1914 78.7591 15.1486 82.2107 18.7107C85.7016 22.2728 87.5058 26.9309 87.3489 31.9021ZM75.7782 31.5107C75.8567 29.0446 74.6408 27.4398 73.9347 26.696C73.1895 25.9523 71.6206 24.6605 69.1496 24.6605H60.3637V42.7841L65.2665 37.852H68.6789C72.4835 37.852 75.6605 34.9945 75.7782 31.5107ZM27.7304 29.5927V0.234862H40.7916V29.5927C40.7916 40.7486 31.6135 49.83 20.3958 49.83C9.17811 49.83 0 40.7486 0 29.5927V12.9957L13.0219 0V29.5927C13.0219 33.6245 16.3166 36.9125 20.3958 36.9125C24.4357 36.8734 27.7304 33.6245 27.7304 29.5927Z" fill="#DC0906"/>
<path d="M110.255 51.1609V57.7761H106.097C105.862 55.5841 103.94 53.8618 101.665 53.8618C99.1942 53.8618 97.1938 55.8581 97.1938 58.285C97.1938 60.7119 99.1942 62.7083 101.665 62.7083C103.783 62.7083 105.548 61.2599 106.019 59.3419H111.981V51.1609H110.255ZM101.665 61.0251C100.135 61.0251 98.8804 59.7725 98.8804 58.2459C98.8804 56.7193 100.135 55.4667 101.665 55.4667C103.195 55.4667 104.45 56.7193 104.45 58.2459C104.45 59.7725 103.195 61.0251 101.665 61.0251ZM211.175 60.2422H209.488V52.022H211.175V60.2422ZM114.256 51.1609H115.942V60.4379C115.942 61.4557 115.511 62.4734 114.726 63.178L114.256 63.6086V51.1609ZM220 51.1609V62.63H218.313V51.1609H220ZM167.442 51.1609H169.128V62.63H167.442V51.1609ZM163.441 61.1034H155.361C153.831 61.1034 152.576 59.8899 152.576 58.3633C152.576 56.8367 153.831 55.5841 155.361 55.5841C156.891 55.5841 158.146 56.8367 158.146 58.3633H159.832C159.832 55.8973 157.832 53.9401 155.361 53.9401C152.89 53.9401 150.89 55.9364 150.89 58.3633C150.89 59.4202 151.243 60.3596 151.87 61.1034H146.693C147.32 60.3205 147.713 59.381 147.713 58.285C147.713 55.819 145.712 53.8618 143.241 53.8618C140.77 53.8618 138.77 55.8581 138.77 58.285C138.77 59.3419 139.162 60.3205 139.79 61.1034H119.943V51.1609H118.256V62.63H165.127V51.1609H163.441V61.1034ZM143.241 61.0251C141.712 61.0251 140.456 59.7725 140.456 58.2459C140.456 56.7193 141.712 55.4667 143.241 55.4667C144.771 55.4667 146.026 56.7193 146.026 58.2459C146.026 59.7725 144.771 61.0251 143.241 61.0251ZM201.84 54.9578H203.526V62.63H183.915V51.1609H185.602V61.0642H193.682C195.211 61.0642 196.466 59.8508 196.466 58.3242C196.466 56.7976 195.211 55.545 193.682 55.545C192.152 55.545 190.897 56.7976 190.897 58.3242H189.21C189.21 55.8581 191.211 53.9009 193.682 53.9009C196.153 53.9009 198.153 55.8973 198.153 58.3242C198.153 59.381 197.8 60.3205 197.172 61.0642H201.84V54.9578ZM180.111 55.3492C181.091 56.367 181.601 57.5413 181.64 58.9113V62.63H174.031V61.0642H179.914V58.8722C179.875 57.9719 179.522 57.1498 178.855 56.4844C178.189 55.8581 177.326 55.545 176.267 55.5058V53.7835C177.836 53.8618 179.13 54.3706 180.111 55.3492ZM214.352 51.1609H216.038V58.7156C216.038 61.6122 213.646 64 210.743 64C207.841 64 205.566 61.7297 205.448 58.9505H207.174C207.292 60.8294 208.861 62.3168 210.783 62.3168C212.705 62.3168 214.391 60.7119 214.391 58.7547L214.352 51.1609ZM200.31 52.1395C200.31 51.5914 200.742 51.2 201.291 51.2C201.84 51.2 202.271 51.6306 202.271 52.1395C202.271 52.6483 201.84 53.0789 201.291 53.0789C200.742 53.0789 200.31 52.6483 200.31 52.1395ZM204.899 52.1395C204.899 52.6483 204.468 53.0789 203.919 53.0789C203.37 53.0789 202.938 52.6483 202.938 52.1395C202.938 51.5914 203.37 51.2 203.919 51.2C204.468 51.1609 204.899 51.5914 204.899 52.1395ZM99.3903 52.1395C99.3903 51.5914 99.8217 51.2 100.371 51.2C100.92 51.2 101.351 51.6306 101.351 52.1395C101.351 52.6483 100.92 53.0789 100.371 53.0789C99.8217 53.0789 99.3903 52.6483 99.3903 52.1395ZM102.057 52.1395C102.057 51.5914 102.489 51.2 103.038 51.2C103.587 51.2 104.019 51.6306 104.019 52.1395C104.019 52.6483 103.587 53.0789 103.038 53.0789C102.489 53.0789 102.057 52.6483 102.057 52.1395ZM143.594 52.1395C143.594 51.5914 144.026 51.2 144.575 51.2C145.124 51.2 145.555 51.6306 145.555 52.1395C145.555 52.6483 145.124 53.0789 144.575 53.0789C144.026 53.0789 143.594 52.6483 143.594 52.1395ZM140.927 52.1395C140.927 51.5914 141.359 51.2 141.908 51.2C142.457 51.2 142.888 51.6306 142.888 52.1395C142.888 52.6483 142.457 53.0789 141.908 53.0789C141.359 53.0789 140.927 52.6483 140.927 52.1395ZM109.51 61.6905C109.51 62.1994 109.078 62.63 108.529 62.63C107.98 62.63 107.549 62.1994 107.549 61.6905C107.549 61.1425 107.98 60.7511 108.529 60.7511C109.078 60.7119 109.51 61.1425 109.51 61.6905ZM112.177 61.6905C112.177 62.1994 111.745 62.63 111.196 62.63C110.647 62.63 110.216 62.1994 110.216 61.6905C110.216 61.1425 110.647 60.7511 111.196 60.7511C111.745 60.7119 112.177 61.1425 112.177 61.6905ZM100.135 12.0563C100.135 14.718 101.822 16.6361 104.842 16.6361C107.862 16.6361 109.588 14.7572 109.588 12.0563V0.117431H112.53V12.2911C112.53 16.3229 109.627 19.2196 104.881 19.2196C100.135 19.2196 97.233 16.3621 97.233 12.2911V0.117431H100.175V12.0563H100.135ZM116.413 5.20612H119.119V7.5156H119.198C119.943 5.94985 121.433 4.97125 123.551 4.97125C126.611 4.97125 128.337 6.8893 128.337 10.0208V18.8673H125.473V10.608C125.473 8.53333 124.493 7.43731 122.532 7.43731C120.571 7.43731 119.237 8.84648 119.237 10.9602V18.9456H116.413V5.20612ZM131.671 1.60489C131.671 0.704587 132.416 0 133.318 0C134.22 0 134.965 0.704587 134.965 1.60489C134.965 2.5052 134.22 3.20979 133.318 3.20979C132.416 3.20979 131.671 2.5052 131.671 1.60489ZM131.906 5.20612H134.73V18.9064H131.906V5.20612ZM137.75 12.0563C137.75 7.67217 140.378 4.97125 144.3 4.97125C148.222 4.97125 150.85 7.67217 150.85 12.0563C150.85 16.4404 148.262 19.1804 144.3 19.1804C140.339 19.1804 137.75 16.4795 137.75 12.0563ZM147.987 12.0563C147.987 9.0422 146.536 7.28073 144.339 7.28073C142.143 7.28073 140.692 9.0422 140.692 12.0563C140.692 15.0703 142.143 16.8318 144.339 16.8318C146.536 16.8709 147.987 15.1095 147.987 12.0563ZM153.792 5.20612H156.498V7.5156H156.577C157.322 5.94985 158.813 4.97125 160.931 4.97125C163.99 4.97125 165.716 6.8893 165.716 10.0208V18.8673H162.853V10.608C162.853 8.53333 161.872 7.43731 159.911 7.43731C157.95 7.43731 156.616 8.84648 156.616 10.9602V18.9456H153.792V5.20612ZM104.293 23.956C107.98 23.956 110.529 26.4612 110.529 30.1407C110.529 33.8202 107.902 36.3254 104.215 36.3254H100.135V42.745H97.1938V23.956H104.293ZM100.135 33.8985H103.509C106.058 33.8985 107.509 32.5284 107.509 30.1798C107.509 27.8312 106.058 26.4612 103.509 26.4612H100.135V33.8985ZM113.51 29.0446H116.217V31.3933H116.295C116.766 29.7884 117.982 28.8489 119.629 28.8489C120.021 28.8489 120.374 28.9272 120.61 28.9664V31.589C120.374 31.5107 119.904 31.4324 119.355 31.4324C117.55 31.4324 116.413 32.6459 116.413 34.5639V42.745H113.589V29.0446H113.51ZM121.865 35.8948C121.865 31.5107 124.493 28.8098 128.415 28.8098C132.337 28.8098 134.965 31.5107 134.965 35.8948C134.965 40.2789 132.377 43.019 128.415 43.019C124.454 43.019 121.865 40.318 121.865 35.8948ZM132.063 35.8948C132.063 32.8807 130.612 31.1193 128.415 31.1193C126.219 31.1193 124.767 32.8807 124.767 35.8948C124.767 38.9089 126.219 40.6703 128.415 40.6703C130.651 40.7095 132.063 38.948 132.063 35.8948ZM150.929 35.8948C150.929 40.2398 148.615 42.9798 145.163 42.9798C143.163 42.9798 141.594 42.0012 140.809 40.5138H140.731V47.2856H137.907V29.0446H140.653V31.3933H140.692C141.515 29.8275 143.084 28.8098 145.085 28.8098C148.615 28.8489 150.929 31.589 150.929 35.8948ZM147.987 35.8948C147.987 33.0373 146.575 31.1976 144.339 31.1976C142.104 31.1976 140.731 33.0765 140.731 35.8948C140.731 38.7132 142.182 40.592 144.339 40.592C146.497 40.592 147.987 38.7914 147.987 35.8948ZM165.677 38.7132C165.284 41.2183 162.892 42.9798 159.715 42.9798C155.675 42.9798 153.204 40.2789 153.204 35.9339C153.204 31.589 155.714 28.7706 159.597 28.7706C163.48 28.7706 165.833 31.4716 165.833 35.6208V36.5994H156.067V36.756C156.067 39.1437 157.518 40.7095 159.793 40.7095C161.401 40.7095 162.617 39.8875 162.97 38.7132H165.677ZM156.106 34.6422H163.009C162.931 32.5284 161.597 31.0801 159.636 31.0801C157.636 31.0801 156.224 32.5676 156.106 34.6422ZM168.775 29.0446H171.482V31.3933H171.56C172.031 29.7884 173.247 28.8489 174.894 28.8489C175.286 28.8489 175.639 28.9272 175.874 28.9664V31.589C175.639 31.5107 175.168 31.4324 174.619 31.4324C172.776 31.4324 171.678 32.6459 171.678 34.5639V42.745H168.854V29.0446H168.775ZM182.032 29.0838H184.66V31.315H182.032V38.8697C182.032 40.044 182.542 40.592 183.719 40.592C183.994 40.592 184.464 40.5529 184.66 40.5138V42.745C184.347 42.8232 183.719 42.8624 183.091 42.8624C180.307 42.8624 179.208 41.8055 179.208 39.1829V31.2758H177.208V29.0446H179.208V25.7957H182.032V29.0838ZM187.602 25.4434C187.602 24.5431 188.347 23.8385 189.249 23.8385C190.152 23.8385 190.897 24.5431 190.897 25.4434C190.897 26.3437 190.152 27.0483 189.249 27.0483C188.347 27.0483 187.602 26.3437 187.602 25.4434ZM187.798 29.0446H190.622V42.745H187.798V29.0446ZM206.115 38.7132C205.723 41.2183 203.33 42.9798 200.153 42.9798C196.113 42.9798 193.642 40.2789 193.642 35.9339C193.642 31.589 196.153 28.7706 200.036 28.7706C203.919 28.7706 206.272 31.4716 206.272 35.6208V36.5994H196.545V36.756C196.545 39.1437 197.996 40.7095 200.271 40.7095C201.879 40.7095 203.095 39.8875 203.448 38.7132H206.115ZM196.545 34.6422H203.448C203.37 32.5284 202.036 31.0801 200.075 31.0801C198.075 31.0801 196.702 32.5676 196.545 34.6422ZM214.391 28.8098C217.451 28.8098 219.608 30.5321 219.686 32.959H217.019C216.901 31.7064 215.882 30.9627 214.273 30.9627C212.665 30.9627 211.724 31.7064 211.724 32.8024C211.724 33.6636 212.391 34.2116 213.842 34.5639L216.156 35.1119C218.941 35.7774 220 36.8343 220 38.8306C220 41.3358 217.647 43.0581 214.273 43.0581C210.9 43.0581 208.861 41.3749 208.625 38.8697H211.449C211.685 40.2006 212.705 40.9052 214.43 40.9052C216.156 40.9052 217.176 40.2006 217.176 39.1046C217.176 38.2434 216.666 37.7346 215.215 37.3823L212.744 36.7951C210.234 36.208 208.978 34.9162 208.978 32.9982C208.978 30.493 211.175 28.8098 214.391 28.8098Z" fill="black"/>
</svg>
