<svg width="34" height="34" viewBox="0 0 34 34" fill="none" xmlns="http://www.w3.org/2000/svg">
<path d="M0 31.6093C0 21.87 0 12.1296 0 2.39022C0.0200718 2.35307 0.0481724 2.31793 0.0582083 2.27776C0.407458 0.858024 1.47528 0.00156187 2.92547 0.00055781C12.308 -0.000446248 21.6906 -0.000446248 31.0732 0.00356999C31.3462 0.00356999 31.6282 0.0356999 31.8921 0.103976C33.1908 0.442344 33.9926 1.55986 33.9926 3.00972C33.9926 11.9187 33.9926 20.8278 33.9926 29.7368C33.9926 30.2348 34.0127 30.7338 33.9866 31.2308C33.9244 32.4367 33.3303 33.2921 32.2283 33.7851C32.0095 33.8835 31.7667 33.9297 31.5358 34H2.45679C2.37349 33.9759 2.29019 33.9508 2.2069 33.9287C1.1732 33.6576 0.476706 33.022 0.13147 32.0069C0.0863088 31.8754 0.0431544 31.7429 0 31.6093ZM1.13105 5.67751V6.047C1.13105 14.3566 1.13105 22.6672 1.13105 30.9768C1.13105 32.1786 1.82252 32.8684 3.02583 32.8694C12.3402 32.8694 21.6555 32.8694 30.9698 32.8694C32.1711 32.8694 32.8616 32.1776 32.8616 30.9738C32.8616 22.6642 32.8616 14.3536 32.8616 6.04399C32.8616 5.92651 32.8616 5.80904 32.8616 5.67751H1.13105ZM32.8616 4.49975C32.8616 4.01981 32.8616 3.56698 32.8616 3.11515C32.8616 1.7918 32.2062 1.13113 30.8935 1.13113C21.6244 1.13113 12.3562 1.13113 3.08705 1.13113C2.98769 1.13113 2.88833 1.12912 2.78798 1.13314C1.92589 1.16627 1.20832 1.80686 1.1461 2.66232C1.10194 3.26576 1.13807 3.87422 1.13807 4.49975H32.8616Z" fill="white"/>
<path d="M11.7822 27.7628C11.6477 27.2136 11.5152 26.7125 11.4028 26.2075C11.3315 25.8872 11.4941 25.6272 11.7932 25.5378C12.0782 25.4514 12.3612 25.6021 12.4787 25.9063C12.5068 25.9786 12.5248 26.0539 12.5459 26.1282C12.6021 26.328 12.6563 26.5288 12.7727 26.7407C12.8309 26.5388 12.8891 26.338 12.9463 26.1362C13.0848 25.6412 13.3407 25.4344 13.693 25.5348C14.0603 25.6402 14.1707 25.9354 14.0412 26.4264C13.9288 26.8521 13.8315 27.2818 13.7141 27.7638H14.1346C19.3352 27.7638 24.5358 27.7638 29.7364 27.7638C29.8689 27.7638 30.0044 27.7568 30.1328 27.7819C30.4108 27.8351 30.6045 28.0861 30.5945 28.3522C30.5834 28.6363 30.3616 28.8642 30.0636 28.8903C29.9542 28.9004 29.8428 28.8954 29.7314 28.8954C21.245 28.8954 12.7576 28.8954 4.27128 28.8954C4.16089 28.8954 4.04949 28.8994 3.93909 28.8913C3.63701 28.8673 3.41622 28.6454 3.40117 28.3602C3.38612 28.0821 3.59286 27.826 3.88691 27.7758C3.9953 27.7578 4.1077 27.7638 4.21809 27.7638C6.5966 27.7638 8.97612 27.7638 11.3546 27.7638H11.7842L11.7822 27.7628Z" fill="white"/>
<path d="M22.5025 16.6599C21.9766 16.936 21.4498 17.2111 20.9239 17.4883C20.8265 17.5395 20.7352 17.6077 20.6328 17.6459C20.3548 17.7493 20.0568 17.6288 19.9273 17.3718C19.7888 17.0977 19.8661 16.7955 20.1591 16.6308C20.7081 16.3225 21.2691 16.0384 21.8271 15.7472C21.9335 15.691 22.0459 15.6468 22.1693 15.5906C21.9485 14.202 22.2356 12.9429 23.1268 11.8525C23.8564 10.9599 24.8088 10.4377 25.9438 10.248C28.1136 9.88552 30.2803 11.239 30.9548 13.3786C31.6312 15.5233 30.6196 17.8377 28.5943 18.8206C26.6253 19.7765 23.8333 19.2233 22.5025 16.6599ZM26.6283 11.3404C24.7395 11.3444 23.2341 12.8475 23.2321 14.7311C23.2301 16.6097 24.7516 18.1349 26.6233 18.1308C28.519 18.1258 30.0254 16.6047 30.0184 14.702C30.0114 12.8405 28.494 11.3364 26.6283 11.3404Z" fill="white"/>
<path d="M9.79505 20.888C9.98673 21.0346 10.1864 21.1179 10.2768 21.2685C10.7214 22.0025 11.1489 22.7485 11.5584 23.5026C11.743 23.8419 11.6186 24.1713 11.3095 24.3118C11.0114 24.4464 10.7324 24.3249 10.5467 23.9946C10.1453 23.2857 9.72279 22.5879 9.34544 21.867C9.25712 21.6993 9.2501 21.4322 9.32035 21.2565C9.37856 21.1099 9.60336 21.0286 9.79605 20.888H9.79505Z" fill="white"/>
<path d="M14.521 24.3671C14.0172 24.363 13.708 23.9604 13.8957 23.601C14.3283 22.7726 14.804 21.9654 15.2907 21.1671C15.4402 20.9221 15.8025 20.9121 16.0334 21.0768C16.2592 21.2374 16.3465 21.5276 16.205 21.7816C15.7724 22.5618 15.3349 23.3389 14.8752 24.102C14.7909 24.2426 14.5932 24.3148 14.521 24.3671Z" fill="white"/>
<path d="M2.86927 15.4179C2.94654 15.443 3.05694 15.4631 3.15328 15.5123C3.87085 15.8737 4.59043 16.2312 5.29896 16.6097C5.65323 16.7985 5.74957 17.1168 5.58799 17.4099C5.42039 17.7142 5.09423 17.7724 4.73093 17.5836C4.04748 17.2282 3.36103 16.8798 2.67156 16.5344C2.39557 16.3958 2.23399 16.198 2.29822 15.8777C2.35543 15.5896 2.55815 15.458 2.86826 15.4179H2.86927Z" fill="white"/>
<path d="M9.03131 19.8759C8.91791 20.0205 8.82558 20.2424 8.66802 20.3107C8.50644 20.3799 8.2174 20.3749 8.09396 20.2705C7.50285 19.7745 6.94385 19.2403 6.38585 18.7052C6.17911 18.5074 6.18613 18.1961 6.35976 17.9802C6.5384 17.7583 6.87861 17.675 7.10141 17.8678C7.70055 18.3879 8.27561 18.9361 8.85067 19.4833C8.92995 19.5586 8.95203 19.6952 9.03131 19.8749V19.8759Z" fill="white"/>
<path d="M19.3382 18.3216C19.2087 18.5164 19.1355 18.6801 19.017 18.7955C18.5243 19.2695 18.0165 19.7293 17.5147 20.1942C17.2457 20.4432 16.9175 20.4613 16.6867 20.2384C16.4569 20.0165 16.4438 19.662 16.7028 19.411C17.2337 18.8959 17.7706 18.3859 18.3386 17.915C18.4741 17.8035 18.7692 17.7865 18.9448 17.8517C19.1024 17.91 19.1957 18.1409 19.3382 18.3216Z" fill="white"/>
<path d="M28.8793 3.39428C28.3384 3.39428 27.7975 3.39829 27.2565 3.39227C26.8822 3.38825 26.6413 3.17338 26.6283 2.85209C26.6152 2.52376 26.8722 2.26772 27.2485 2.26471C28.3414 2.25768 29.4343 2.25768 30.5272 2.26471C30.9186 2.26672 31.1545 2.49966 31.1474 2.84506C31.1404 3.18041 30.9166 3.38825 30.5343 3.39227C29.9823 3.3993 29.4303 3.39428 28.8783 3.39428H28.8793Z" fill="white"/>
<path d="M3.10812 3.39227C2.54009 3.39428 2.26611 3.21154 2.26611 2.832C2.26611 2.45347 2.54812 2.2617 3.10712 2.2627C3.21751 2.2627 3.32891 2.25567 3.4383 2.26873C3.75243 2.30588 3.97522 2.55589 3.96619 2.84807C3.95616 3.14427 3.72633 3.37018 3.40619 3.39126C3.30683 3.39729 3.20748 3.39227 3.10812 3.39227Z" fill="white"/>
<path d="M8.75834 3.39428C8.68106 3.39428 8.60379 3.39729 8.52651 3.39428C8.17525 3.37821 7.94844 3.16736 7.9384 2.85108C7.92837 2.52175 8.15919 2.2868 8.5235 2.26672C8.68809 2.25768 8.85468 2.25869 9.02028 2.26672C9.38558 2.28278 9.62644 2.51071 9.62745 2.83301C9.62745 3.16033 9.39261 3.38122 9.02429 3.39528C8.93597 3.39829 8.84766 3.39528 8.75934 3.39528L8.75834 3.39428Z" fill="white"/>
<path d="M5.95129 3.39227C5.85194 3.39227 5.75258 3.39829 5.65323 3.39126C5.32505 3.36817 5.11229 3.1533 5.10727 2.84405C5.10125 2.54083 5.311 2.30086 5.63115 2.26973C5.81681 2.25166 6.00649 2.25668 6.19316 2.26471C6.56248 2.28078 6.7913 2.50568 6.78829 2.83702C6.78528 3.16937 6.55746 3.38022 6.18312 3.39327C6.10585 3.39629 6.02857 3.39327 5.95129 3.39327C5.95129 3.39327 5.95129 3.39227 5.95129 3.39126V3.39227Z" fill="white"/>
</svg>
