<svg width="34" height="34" viewBox="0 0 34 34" fill="none" xmlns="http://www.w3.org/2000/svg">
<path d="M6.90635 0C7.24758 0.0797725 7.59458 0.139362 7.92908 0.24124C10.0063 0.874614 11.4145 2.21633 12.1469 4.26446C12.1757 4.34616 12.2084 4.42689 12.2459 4.52589C12.393 4.52589 12.5362 4.52589 12.6785 4.52589C18.4217 4.52589 24.165 4.52397 29.9083 4.52685C31.8749 4.52781 33.436 5.74458 33.8906 7.63221C33.9627 7.93016 33.9906 8.24444 33.9925 8.55104C34.0012 10.5982 34.0002 12.6454 33.9963 14.6926C33.9925 16.9166 32.2652 18.6696 30.0371 18.7129C29.4738 18.7235 28.9105 18.7148 28.3425 18.7148C28.2877 18.8532 28.2483 18.9772 28.1916 19.0935C27.8282 19.8345 26.8901 20.0748 26.2182 19.5702C25.5463 19.0656 24.8878 18.5409 24.2486 17.9949C23.6094 17.4481 23.6373 16.5071 24.2929 15.9632C24.8715 15.4826 25.4665 15.0213 26.0548 14.5532C26.965 13.8295 27.9724 14.137 28.3252 15.2702C28.7769 15.2702 29.2412 15.3019 29.6987 15.2606C30.1188 15.2231 30.4783 14.8223 30.5571 14.4004C30.5629 14.3677 30.5715 14.335 30.5715 14.3023C30.5715 12.5099 30.5898 10.7183 30.56 8.92683C30.5504 8.35497 30.0727 7.97052 29.4911 7.95707C29.0153 7.94553 28.5395 7.95322 28.0637 7.95322C22.9404 7.95322 17.8171 7.95611 12.6929 7.94649C12.3661 7.94649 12.2046 8.01281 12.0835 8.35593C11.1155 11.0816 8.47506 12.6858 5.775 12.457C2.7587 12.2004 0.515213 10.0619 0.0624791 7.11897C0.0547894 7.06804 0.0211468 7.02094 0 6.97289C0 6.4856 0 5.99928 0 5.51199C0.022108 5.45144 0.0538282 5.39281 0.0644016 5.33034C0.454656 3.07076 1.67925 1.44359 3.78047 0.522846C4.34663 0.274879 4.97719 0.170117 5.57795 0C6.02107 0 6.46323 0 6.90635 0ZM12.4824 6.79027C12.6496 6.79027 12.7909 6.79027 12.9332 6.79027C18.0901 6.79027 23.2471 6.79027 28.404 6.79027C28.7471 6.79027 29.0903 6.78162 29.4334 6.7922C30.7138 6.8316 31.7077 7.75715 31.726 8.99219C31.7529 10.7405 31.75 12.4897 31.7269 14.2379C31.7125 15.3673 30.8657 16.2851 29.7362 16.4053C29.1557 16.4668 28.5655 16.4418 27.9801 16.4456C27.3774 16.4495 27.2025 16.2659 27.1746 15.6537C27.1698 15.546 27.1035 15.4413 27.065 15.3355C26.9574 15.3778 26.8324 15.3971 26.7449 15.4643C26.2028 15.8843 25.6674 16.313 25.1339 16.7436C24.8782 16.9493 24.8792 17.0511 25.1378 17.2597C25.6549 17.6759 26.172 18.092 26.6978 18.4966C26.8026 18.5774 26.9458 18.6091 27.0708 18.6629C27.1073 18.5341 27.1698 18.4063 27.1765 18.2756C27.2025 17.7624 27.4005 17.5605 27.9195 17.5538C28.2954 17.5499 28.6722 17.5586 29.048 17.5519C29.5565 17.5423 30.0765 17.5874 30.5696 17.4932C31.9778 17.2251 32.8535 16.0814 32.8583 14.5763C32.864 12.606 32.8631 10.6367 32.8554 8.66637C32.8544 8.39245 32.8294 8.11084 32.7641 7.84558C32.4296 6.48752 31.3492 5.68403 29.8506 5.68307C24.1737 5.67923 18.4967 5.68115 12.8198 5.68307C12.7121 5.68307 12.6054 5.6946 12.4843 5.70229V6.79027H12.4824ZM3.91985 8.19638C2.2406 6.45292 2.76831 4.27696 3.85352 3.23223C5.06562 2.0664 6.97844 1.93184 8.28666 2.9487C8.99796 3.50134 9.45069 4.21737 9.59007 5.10832C9.77558 6.30203 9.40071 7.32465 8.53754 8.18773C9.21135 8.51547 9.67081 9.00372 9.97936 9.64478C11.7297 7.84654 11.898 4.54992 9.70349 2.49505C7.60131 0.526691 4.24858 0.716991 2.36075 2.92659C0.477725 5.13139 0.992938 8.20503 2.50686 9.62941C2.80676 8.99603 3.2643 8.51644 3.91888 8.19638H3.91985ZM6.22485 7.92054C7.47924 7.92631 8.49332 6.92964 8.50101 5.68307C8.5087 4.44323 7.49846 3.42541 6.24984 3.41484C5.00506 3.40427 3.98425 4.41344 3.9804 5.65904C3.97752 6.91618 4.96757 7.91478 6.22485 7.92054ZM9.01718 10.4925C8.8557 9.64863 8.22514 9.09791 7.40426 9.0883C6.61895 9.07869 5.83459 9.07965 5.04928 9.0883C4.36585 9.09695 3.77086 9.53714 3.51998 10.1705C3.43059 10.3964 3.46615 10.5223 3.68723 10.6463C4.46486 11.0826 5.29343 11.32 6.18255 11.3258C7.21106 11.3325 8.16266 11.0643 9.01718 10.4925Z" fill="white"/>
<path d="M0 18.7273C0.113424 18.3736 0.18936 18.0017 0.347 17.6682C1.05926 16.1611 2.26943 15.3509 3.9285 15.2981C5.43184 15.251 6.93807 15.2788 8.44238 15.2894C9.45646 15.2971 10.2245 16.0593 10.2139 17.0136C10.2033 17.9603 9.44685 18.7014 8.44814 18.711C7.18703 18.7235 5.92591 18.7129 4.66479 18.7148C3.8516 18.7158 3.41328 19.1454 3.4104 19.9623C3.40463 21.578 3.40367 23.1936 3.4104 24.8083C3.41425 25.6224 3.85256 26.0433 4.67344 26.0481C4.80609 26.0481 4.94066 26.0347 5.07138 26.051C5.44914 26.0971 5.68272 26.0174 5.86535 25.606C6.16813 24.9236 7.06976 24.6968 7.68013 25.1322C8.41738 25.6579 9.12868 26.2269 9.80634 26.8266C10.3908 27.3437 10.3475 28.2529 9.74675 28.7633C9.11427 29.2996 8.46641 29.8195 7.80317 30.3174C6.99094 30.9267 6.01818 30.549 5.66446 29.4755C5.10599 29.4755 4.53214 29.4976 3.96022 29.4716C2.26078 29.3928 1.02946 28.5903 0.322008 27.0313C0.178786 26.7151 0.106695 26.3663 0.00192244 26.0327C0.00192244 23.5982 0.00192244 21.1628 0.00192244 18.7283L0 18.7273ZM1.1871 22.3796C1.17076 22.3796 1.15442 22.3796 1.13808 22.3796C1.13808 23.3858 1.12943 24.3931 1.14 25.3994C1.15827 27.0909 2.32038 28.2721 4.01212 28.3144C4.6869 28.3317 5.36167 28.3164 6.03645 28.3192C6.62087 28.3221 6.79485 28.5019 6.82176 29.0949C6.82657 29.2044 6.88616 29.3121 6.91981 29.4197C7.02842 29.3832 7.15627 29.3707 7.24181 29.3044C7.78394 28.8853 8.31838 28.4557 8.85282 28.0261C9.12868 27.8041 9.12676 27.7147 8.84609 27.4898C8.33664 27.0813 7.83008 26.6709 7.31198 26.2749C7.20048 26.1894 7.04669 26.1596 6.91212 26.1048C6.8804 26.2375 6.82849 26.3682 6.8208 26.5018C6.79293 26.9919 6.58819 27.2024 6.09604 27.2082C5.60967 27.214 5.12233 27.2149 4.63595 27.2082C3.23354 27.1909 2.26655 26.2154 2.26463 24.815C2.26175 23.1888 2.26367 21.5626 2.26463 19.9364C2.26463 19.7932 2.26751 19.6471 2.29154 19.5068C2.50205 18.3112 3.39598 17.5634 4.64364 17.5538C5.91533 17.5442 7.18799 17.5548 8.45968 17.548C8.8432 17.5461 9.05659 17.326 9.04986 16.9829C9.04314 16.658 8.83071 16.4495 8.46256 16.4495C6.89193 16.4466 5.3213 16.4303 3.75067 16.4639C2.48186 16.4908 1.29188 17.5644 1.20441 18.8311C1.12366 20.0085 1.1871 21.1955 1.1871 22.3776V22.3796Z" fill="white"/>
<path d="M21.6658 26.3115C22.6338 22.566 26.3162 21.0013 29.1422 21.6731C32.1623 22.3911 34.1376 25.039 33.9925 28.202C33.8647 30.9854 31.5702 33.4881 28.7673 33.9245C25.6338 34.4127 22.5261 32.4991 21.6822 29.1996C21.2746 29.5226 20.8776 29.834 20.4836 30.1492C19.5271 30.9123 18.7053 30.7201 18.1661 29.6215C18.1266 29.5408 17.9594 29.4822 17.8508 29.4812C16.2686 29.4726 14.6855 29.4822 13.1033 29.4726C11.9739 29.4658 11.2145 28.5951 11.3549 27.4917C11.4606 26.6565 12.2007 26.0529 13.1475 26.0491C14.6855 26.0433 16.2234 26.0424 17.7623 26.0529C18.0123 26.0549 18.1401 26.0039 18.242 25.7425C18.5592 24.9294 19.5416 24.6708 20.2548 25.1985C20.7325 25.5522 21.19 25.9347 21.6639 26.3105L21.6658 26.3115ZM22.6674 27.7637C22.6732 30.5673 24.9571 32.8538 27.7552 32.8586C30.561 32.8634 32.8765 30.5413 32.8563 27.7426C32.8362 24.9303 30.5552 22.666 27.7494 22.6727C24.9407 22.6794 22.6617 24.963 22.6674 27.7637ZM15.838 27.2101V27.212C14.9085 27.212 13.979 27.2072 13.0495 27.2149C12.7083 27.2178 12.4939 27.4292 12.4805 27.7358C12.467 28.0559 12.6813 28.2837 13.0312 28.3125C13.1408 28.3212 13.2523 28.3183 13.3628 28.3183C15.0671 28.3183 16.7713 28.3183 18.4756 28.3183C19.085 28.3183 19.2417 28.4788 19.2657 29.0766C19.2705 29.1939 19.3445 29.3082 19.3868 29.4236C19.4945 29.3832 19.6204 29.3659 19.7078 29.2986C20.2586 28.8709 20.7959 28.4278 21.3477 28.0011C21.5851 27.8175 21.5543 27.6811 21.3342 27.5109C20.7921 27.0909 20.2634 26.6536 19.7203 26.2346C19.6261 26.1625 19.4887 26.1452 19.3714 26.1029C19.3349 26.223 19.2724 26.3432 19.2676 26.4643C19.2465 27.0265 19.0677 27.2082 18.4948 27.2101C17.6095 27.212 16.7242 27.2101 15.8389 27.2101H15.838Z" fill="white"/>
<path d="M18.5419 18.7148C17.7345 18.7148 16.928 18.7196 16.1206 18.7119C15.9418 18.71 15.8572 18.7552 15.789 18.9407C15.4593 19.8355 14.4673 20.118 13.706 19.5356C13.0831 19.0589 12.4689 18.5697 11.8653 18.068C11.1376 17.4625 11.1434 16.5312 11.8758 15.9257C12.4718 15.4326 13.0764 14.9492 13.6906 14.4802C14.4731 13.8833 15.4516 14.1591 15.7918 15.0789C15.8735 15.3 16.0033 15.2884 16.1706 15.2884C17.7402 15.2875 19.3099 15.2808 20.8805 15.2904C22.0032 15.2971 22.7549 16.1333 22.6453 17.2251C22.5607 18.067 21.8235 18.7014 20.8959 18.7139C20.1116 18.7235 19.3262 18.7158 18.5409 18.7158L18.5419 18.7148ZM18.1622 17.5538C18.6717 17.5538 19.1801 17.5538 19.6896 17.5538C20.1212 17.5538 20.5528 17.5615 20.9843 17.5461C21.314 17.5336 21.5245 17.2991 21.5197 16.9915C21.5149 16.6965 21.3102 16.4831 20.9988 16.4552C20.8892 16.4456 20.7777 16.4485 20.6671 16.4485C18.9523 16.4485 17.2366 16.4485 15.5217 16.4485C14.9219 16.4485 14.7585 16.2803 14.7326 15.6863C14.7278 15.5691 14.6528 15.4547 14.6105 15.3394C14.5029 15.3798 14.3769 15.398 14.2904 15.4653C13.7396 15.892 13.2023 16.3361 12.6515 16.7628C12.4132 16.9473 12.4478 17.0848 12.666 17.2539C13.1985 17.6682 13.7185 18.0987 14.2529 18.5101C14.3558 18.5889 14.5019 18.6101 14.6288 18.6581C14.6643 18.537 14.7268 18.4178 14.7316 18.2958C14.7537 17.7297 14.9258 17.5567 15.5083 17.5548C16.3936 17.5528 17.2789 17.5548 18.1641 17.5548L18.1622 17.5538Z" fill="white"/>
<path d="M26.6113 28.6787C27.6264 27.6609 28.5847 26.6959 29.5488 25.7348C29.8881 25.3965 30.3283 25.432 30.5215 25.805C30.6494 26.051 30.6052 26.2836 30.4158 26.4749C29.2921 27.6042 28.1685 28.7335 27.0352 29.8532C26.7805 30.105 26.4691 30.0935 26.2076 29.8416C25.8327 29.4812 25.4646 29.1141 25.106 28.7373C24.8677 28.4874 24.8754 28.1607 25.0984 27.9348C25.3223 27.708 25.6491 27.6955 25.9 27.9329C26.1403 28.1587 26.3566 28.4096 26.6113 28.6777V28.6787Z" fill="white"/>
</svg>
