<svg width="35" height="34" viewBox="0 0 35 34" fill="none" xmlns="http://www.w3.org/2000/svg">
<path d="M11.0462 34C5.04776 34 0.520937 29.9774 0.0458729 24.6644C-0.229664 21.5813 0.736299 18.8841 2.93743 16.6583C4.92847 14.6444 6.98286 12.6892 9.01613 10.7144C9.61682 10.1309 10.5004 10.1186 11.1064 10.6928C12.0249 11.5644 12.9307 12.4494 13.8259 13.3436C14.4477 13.9652 14.4202 14.7915 13.7699 15.4265C11.8771 17.2777 9.9747 19.1208 8.08395 20.9741C6.88785 22.1452 6.59542 23.765 7.30696 25.1768C8.45767 27.4634 11.4632 27.8997 13.3973 26.0464C14.8478 24.6561 16.2772 23.2432 17.7161 21.8406C18.1648 21.4033 18.6114 20.9618 19.0643 20.5286C19.6956 19.9245 20.5433 19.906 21.1746 20.5069C22.092 21.3796 22.9988 22.2635 23.8941 23.1578C24.5011 23.7629 24.5022 24.5892 23.8898 25.1881C21.7985 27.236 19.7325 29.3095 17.5873 31.3018C15.6227 33.1263 13.2094 33.9609 11.0441 33.9969L11.0462 34ZM17.392 23.199C17.3266 23.2792 17.2611 23.376 17.1788 23.4573C16.0745 24.5367 14.9829 25.6306 13.8565 26.6875C12.009 28.4215 9.15337 28.405 7.41042 26.6772C5.65268 24.936 5.69913 22.1977 7.5181 20.4082C7.80736 20.1231 8.10084 19.8411 8.39221 19.5571C9.27372 18.6999 10.1563 17.8427 11.0125 17.0092C9.78257 15.8103 8.57274 14.631 7.3513 13.4404C7.3344 13.4548 7.28901 13.4887 7.24889 13.5278C6.01795 14.7277 4.76695 15.9081 3.5624 17.1326C1.35599 19.376 0.424868 22.067 0.911545 25.1357C1.48057 28.7219 3.55079 31.2658 7.0177 32.5603C10.5089 33.8642 13.8217 33.328 16.7048 30.991C18.092 29.8673 19.2955 28.5275 20.5845 27.2885C20.7586 27.1207 20.9455 26.9653 21.1091 26.8202C19.8571 25.5998 18.6525 24.4266 17.3941 23.199H17.392ZM11.6406 16.3475C12.1832 15.8299 12.7554 15.3061 13.3001 14.7555C13.5503 14.5034 13.5398 14.1741 13.2822 13.9179C12.3701 13.0102 11.4474 12.1108 10.5163 11.2207C10.2545 10.9696 9.89025 10.9747 9.62632 11.2238C9.06997 11.7486 8.53051 12.2919 8.00794 12.8044C9.22305 13.9899 10.4329 15.1692 11.6416 16.3475H11.6406ZM21.7236 26.1771C22.2472 25.6697 22.8046 25.1449 23.343 24.6016C23.5964 24.3464 23.5995 23.9862 23.3451 23.7331C22.4319 22.8254 21.5103 21.927 20.5792 21.0379C20.3184 20.7889 19.9743 20.7786 19.7188 21.0184C19.154 21.5484 18.6135 22.103 18.0814 22.6299C19.2986 23.8143 20.5084 24.9937 21.7236 26.1771Z" fill="white"/>
<path d="M10.7454 6.19269C10.5722 3.04582 13.2347 0.19429 16.519 0.0100882C19.9246 -0.181317 22.8954 2.37487 23.0653 5.64111C23.2416 9.04525 20.6531 11.8649 17.1387 12.0131C13.7214 12.1571 10.8625 9.5464 10.7464 6.19372L10.7454 6.19269ZM15.1751 6.5683C13.8913 4.99692 13.8428 3.56447 15.0114 2.48498C16.0439 1.53104 17.637 1.49091 18.7043 2.39854C19.2501 2.86265 19.5657 3.44921 19.6364 4.15515C19.7315 5.11321 19.3535 5.88912 18.6008 6.55286C19.8222 6.91098 20.804 7.54694 21.6127 8.44942C22.9091 6.27913 22.2303 3.35763 20.0988 1.81095C17.9125 0.224133 14.8531 0.500951 12.9813 2.45102C11.1085 4.40212 11.308 7.1384 12.2265 8.42678C13.0204 7.54179 13.9906 6.92127 15.1761 6.56933L15.1751 6.5683ZM12.6752 9.18109C14.6831 11.9081 19.1825 11.8978 21.1408 9.17903C19.0949 6.41188 14.7095 6.43349 12.6752 9.18109ZM16.8927 2.53438C15.818 2.53952 14.947 3.40085 14.9565 4.4474C14.9671 5.46926 15.8518 6.32338 16.9032 6.32544C17.9737 6.3275 18.8542 5.46412 18.8478 4.41859C18.8415 3.35763 17.9811 2.5282 16.8916 2.53335L16.8927 2.53438Z" fill="white"/>
<path d="M29.6328 23.6795C26.6579 23.6775 24.2678 21.3292 24.2762 18.4169C24.2847 15.5695 26.7117 13.2243 29.6466 13.2274C32.5856 13.2304 35 15.5757 35 18.4282C35 21.3425 32.611 23.6816 29.6328 23.6795ZM28.0672 18.9098C27.0073 17.6925 26.9661 16.3835 27.9321 15.4347C28.8337 14.5497 30.2473 14.4931 31.2269 15.3019C32.3048 16.1931 32.3206 17.4486 31.2882 18.8779C31.7126 19.0889 32.1602 19.27 32.5603 19.5232C32.9699 19.7815 33.3309 20.1118 33.712 20.4092C34.7656 18.6618 34.1438 16.1736 32.3122 14.8574C30.4711 13.534 27.8498 13.7913 26.2884 15.4501C24.9983 16.8198 24.6668 19.3523 25.6486 20.4349C26.3053 19.7177 27.1087 19.2186 28.0672 18.9098ZM26.0656 21.1686C27.9089 23.5869 31.6672 23.3636 33.1937 21.1583C31.4539 18.8965 27.8656 18.8934 26.0656 21.1686ZM29.6455 18.6639C30.545 18.6629 31.2554 17.9755 31.2618 17.1018C31.2681 16.2374 30.5513 15.5283 29.6603 15.5181C28.7661 15.5078 28.0092 16.2404 28.0218 17.1059C28.0345 17.9816 28.7461 18.6649 29.6455 18.6639Z" fill="white"/>
<path d="M29.219 11.1517C26.7687 11.1528 24.7809 9.21505 24.7745 6.81939C24.7682 4.45666 26.8015 2.48601 29.2359 2.4963C31.6608 2.50556 33.6624 4.46181 33.6593 6.81836C33.6561 9.21607 31.6746 11.1507 29.219 11.1517ZM27.7146 7.47902C26.9683 6.3666 26.9904 5.4106 27.797 4.65013C28.498 3.98947 29.5906 3.90817 30.3898 4.45872C30.7888 4.73348 31.0549 5.10189 31.1858 5.55982C31.4001 6.30692 31.152 6.94802 30.7086 7.47593C31.285 7.82787 31.8361 8.16437 32.3861 8.50088C33.2813 7.16104 32.8717 5.12967 31.4687 4.05019C29.9802 2.90484 27.8455 3.07566 26.547 4.42991C25.3182 5.71109 25.3657 7.6447 26.0572 8.4875C26.6072 8.15305 27.1509 7.8217 27.7136 7.48005L27.7146 7.47902ZM31.8656 9.23666C30.4014 7.56031 27.6281 7.8536 26.5935 9.25415C27.9511 10.7442 30.4732 10.7442 31.8656 9.23666ZM30.4584 6.10008C30.4668 5.43942 29.9242 4.89196 29.2486 4.87858C28.5476 4.8652 27.9764 5.39723 27.9722 6.06715C27.968 6.73809 28.5328 7.29379 29.2201 7.29379C29.8989 7.29379 30.451 6.76176 30.4594 6.10008H30.4584Z" fill="white"/>
<path d="M6.53208 6.80601C6.29454 7.24645 6.08446 7.64264 5.86804 8.03574C5.65162 8.42884 5.3687 8.46898 5.06994 8.14276C4.53047 7.55208 4.00051 6.95317 3.46422 6.36146C3.27842 6.15565 3.20663 5.94366 3.42094 5.72447C3.59618 5.54541 3.85694 5.60098 4.08497 5.8531C4.50303 6.31412 4.91791 6.77823 5.36659 7.27732C5.60623 6.83586 5.82054 6.43452 6.04118 6.03627C6.27132 5.62156 6.54158 5.59172 6.85512 5.95601C7.39986 6.58682 7.93615 7.22484 8.47984 7.85771C8.6593 8.06661 8.73637 8.2786 8.51045 8.49367C8.31937 8.67582 8.08712 8.62231 7.85275 8.3496C7.42203 7.85154 6.99658 7.34936 6.53102 6.80601H6.53208Z" fill="white"/>
<path d="M27.7621 28.1621C27.2987 28.2877 26.8817 28.4009 26.4636 28.512C25.9273 28.6551 25.7225 28.4873 25.7764 27.9615C25.8461 27.2771 25.9073 26.5918 25.9727 25.9075C25.9822 25.8046 25.997 25.7027 26.0097 25.5998C26.0424 25.3456 26.1839 25.184 26.451 25.2128C26.7149 25.2406 26.8289 25.4259 26.8067 25.68C26.7487 26.3181 26.6864 26.9561 26.6188 27.6569C27.0749 27.5344 27.4961 27.4222 27.9163 27.308C28.5201 27.1444 28.7028 27.3049 28.6215 27.909C28.5286 28.6026 28.4494 29.2972 28.3628 29.9908C28.3491 30.105 28.3301 30.2182 28.3143 30.3314C28.2784 30.5887 28.1306 30.7327 27.8614 30.7029C27.5827 30.672 27.494 30.4806 27.5214 30.2316C27.5911 29.6162 27.6682 29.0018 27.7421 28.3875C27.7484 28.3319 27.7516 28.2764 27.7611 28.1601L27.7621 28.1621Z" fill="white"/>
<path d="M18.4636 16.9258C17.9695 16.9258 17.5261 16.9289 17.0838 16.9258C16.5591 16.9217 16.405 16.7025 16.5929 16.225C16.8779 15.4985 17.164 14.772 17.4575 14.0486C17.5905 13.7213 17.847 13.6112 18.0825 13.7707C18.2904 13.9107 18.302 14.0979 18.2123 14.3171C17.9748 14.9016 17.7478 15.4903 17.4902 16.1458C17.9537 16.1458 18.3812 16.1458 18.8088 16.1458C19.4623 16.1478 19.591 16.3351 19.3398 16.9227C19.0336 17.641 18.7275 18.3603 18.4171 19.0765C18.2725 19.41 18.073 19.5293 17.8375 19.4151C17.5356 19.269 17.5557 19.0344 17.6697 18.773C17.9315 18.1751 18.1849 17.5751 18.4636 16.9268V16.9258Z" fill="white"/>
</svg>
