<svg width="28" height="36" viewBox="0 0 28 36" fill="none" xmlns="http://www.w3.org/2000/svg">
<path d="M24.9066 0.00203513C25.0541 0.0376498 25.2015 0.072247 25.349 0.110914C26.708 0.472149 27.4904 1.85095 27.092 3.18192C26.6998 4.49153 25.2947 5.21705 23.9685 4.79578C23.8907 4.77136 23.8139 4.74592 23.6982 4.70827C22.4959 6.31907 21.2895 7.93394 20.0893 9.54169C20.7908 10.8757 20.6618 12.0205 19.7288 12.8498C18.8983 13.5875 17.6469 13.6679 16.715 13.0431C15.7451 12.3929 15.4093 11.2593 15.8465 10.0108C14.5726 9.07463 13.2873 8.12931 11.9919 7.17586C10.89 7.89222 9.82083 7.84847 8.78138 7.03136C7.39989 7.95531 6.0225 8.87722 4.6236 9.81236C4.88679 10.3893 5.00968 10.9683 4.86017 11.59C4.56216 12.8274 3.33326 13.6394 2.03882 13.4339C0.861121 13.2477 -0.0769396 12.0887 0.00498709 10.9225C0.0981787 9.59054 1.11817 8.57297 2.41466 8.6035C2.85501 8.61367 3.29946 8.78971 3.72548 8.93828C3.89855 8.99831 4.00813 9.02986 4.16891 8.92098C5.44594 8.05707 6.72605 7.19723 8.01537 6.35163C8.20892 6.22444 8.16898 6.11149 8.1229 5.94461C7.83308 4.91687 8.09115 4.02853 8.91042 3.35084C9.7092 2.69044 10.6319 2.59072 11.5587 3.04862C12.4998 3.51263 12.9627 4.31549 12.9187 5.36256C12.9043 5.70446 12.7743 6.04127 12.6831 6.44219C13.9018 7.33765 15.1676 8.26872 16.4272 9.19369C17.5086 8.47325 18.1046 8.40711 19.3356 8.87824C20.5133 7.30102 21.6981 5.71362 22.8912 4.11503C22.498 3.6093 22.2665 3.06388 22.2808 2.42282C22.3065 1.25364 23.1534 0.266602 24.3208 0.0691943C24.4007 0.055966 24.4765 0.023404 24.5543 0C24.6721 0 24.7909 0 24.9086 0L24.9066 0.00203513ZM1.01781 11.0233C1.01781 11.8404 1.65581 12.4713 2.4761 12.4672C3.27693 12.4631 3.94566 11.7905 3.93132 11.0039C3.91699 10.2224 3.25952 9.57629 2.47405 9.57324C1.65991 9.56917 1.01781 10.2102 1.01781 11.0243V11.0233ZM26.1877 2.49201C26.1939 1.67593 25.561 1.03995 24.7397 1.03791C23.9204 1.03588 23.2732 1.67287 23.2742 2.4798C23.2752 3.27452 23.9511 3.94204 24.7448 3.93288C25.5313 3.92372 26.1816 3.27452 26.1877 2.49201ZM19.5445 11.0273C19.5476 10.2153 18.9044 9.5712 18.0913 9.57222C17.2915 9.57222 16.6207 10.2448 16.631 11.0334C16.6412 11.818 17.2915 12.4621 18.0801 12.4662C18.9004 12.4713 19.5414 11.8404 19.5445 11.0263V11.0273ZM9.02102 5.23231C9.02102 6.04127 9.67643 6.69557 10.4783 6.68743C11.2576 6.6803 11.9192 6.02601 11.9335 5.24859C11.9478 4.45896 11.2832 3.79348 10.4773 3.79144C9.65185 3.78941 9.01999 4.41317 9.02102 5.23231Z" fill="white"/>
<path d="M23.4084 32.9446C23.265 28.5142 19.4196 24.3106 14.2449 24.336C9.02716 24.3625 5.28004 28.623 5.16022 32.9446C5.28721 32.9446 5.41317 32.9446 5.54016 32.9446C6.80285 32.9446 8.06555 32.9446 9.32927 32.9446C9.75733 32.9446 9.96113 33.1034 9.96317 33.431C9.96625 33.7597 9.75938 33.9266 9.33848 33.9266C6.63593 33.9266 3.93235 33.9266 1.22979 33.9266C0.736183 33.9266 0.564137 33.7526 0.576426 33.2743C0.673714 29.376 2.14225 26.0761 5.01275 23.4233C7.17357 21.4258 9.74402 20.2688 12.6811 19.9137C19.2127 19.1251 25.475 23.1781 27.389 29.4401C27.772 30.6928 27.9645 31.9729 27.9942 33.2784C28.0044 33.7414 27.8293 33.9266 27.3685 33.9266C24.6536 33.9276 21.9388 33.9276 19.225 33.9266C18.8051 33.9266 18.5993 33.7567 18.6044 33.427C18.6095 33.1013 18.8123 32.9446 19.2424 32.9446C20.6218 32.9436 22.0013 32.9446 23.4094 32.9446H23.4084ZM14.7938 23.346C17.2229 23.4905 19.3059 24.3737 21.0765 25.9184C21.6807 25.3139 22.2614 24.7349 22.8646 24.1315C20.5819 22.0872 17.9039 20.9771 14.7938 20.8204V23.346ZM4.91649 24.911C2.86218 27.1771 1.74388 29.839 1.58617 32.9151H4.12999C4.27234 30.5147 5.16329 28.445 6.71581 26.6846C6.10648 26.0832 5.52172 25.5083 4.91547 24.911H4.91649ZM13.7676 20.8173C10.6503 20.9862 7.97236 22.0913 5.71528 24.1203C6.33485 24.7319 6.91755 25.3068 7.51664 25.897C9.27806 24.3574 11.3672 23.4894 13.7676 23.3439V20.8173ZM26.9814 32.9273C26.8104 29.8258 25.6982 27.1669 23.6777 24.9445C23.0663 25.5469 22.4764 26.128 21.8743 26.7202C23.4247 28.4724 24.2921 30.5503 24.4396 32.9273H26.9814Z" fill="white"/>
<path d="M26.9804 10.3944H23.5036C23.5036 10.5572 23.5036 10.6946 23.5036 10.832C23.5036 14.3283 23.5036 17.8236 23.5036 21.32C23.5036 21.8624 23.3541 22.0964 23.01 22.0974C22.67 22.0974 22.5051 21.8461 22.5051 21.3241C22.5051 17.5937 22.5051 13.8633 22.5051 10.1329C22.5051 9.5132 22.6475 9.37379 23.2783 9.37379C24.6127 9.37379 25.946 9.37379 27.2804 9.37379C27.8334 9.37379 27.9993 9.53559 27.9993 10.0861C28.0004 15.6115 28.0004 21.1368 27.9983 26.6622C27.9983 26.7894 28.0126 26.9532 27.944 27.0356C27.8273 27.1751 27.6501 27.3491 27.4965 27.3511C27.3429 27.3531 27.1452 27.1903 27.0449 27.0468C26.963 26.9288 26.9824 26.7314 26.9824 26.5696C26.9793 21.3373 26.9804 16.105 26.9804 10.8737V10.3944Z" fill="white"/>
<path d="M12.3708 10.484H8.89096C8.89096 10.6376 8.89096 10.775 8.89096 10.9113C8.89096 13.8429 8.89096 16.7735 8.89096 19.7051C8.89096 19.8221 8.90427 19.9432 8.87867 20.0552C8.8162 20.3248 8.64415 20.4958 8.35331 20.4744C8.08705 20.4551 7.92525 20.2963 7.89965 20.0226C7.89145 19.929 7.89145 19.8354 7.89145 19.7418C7.89145 16.5649 7.89145 13.3871 7.89145 10.2102C7.89145 9.59054 8.03278 9.45215 8.66464 9.45215C9.9857 9.45215 11.3078 9.45113 12.6289 9.45215C13.2146 9.45215 13.3621 9.59969 13.3621 10.1767C13.3621 12.9902 13.3621 15.8048 13.3621 18.6184C13.3621 18.712 13.3683 18.8076 13.356 18.8992C13.3181 19.174 13.1348 19.3205 12.8757 19.3266C12.6125 19.3327 12.4322 19.179 12.38 18.9145C12.3595 18.8127 12.3718 18.7038 12.3718 18.599C12.3718 16.0429 12.3718 13.4868 12.3718 10.9317C12.3718 10.7933 12.3718 10.6549 12.3718 10.486L12.3708 10.484Z" fill="white"/>
<path d="M16.46 32.0217C16.8594 32.6923 16.9966 33.4188 16.7569 34.1932C16.3739 35.4316 15.1645 36.1662 13.8342 35.9678C12.6289 35.7877 11.6652 34.644 11.6847 33.4147C11.7051 32.1428 12.6504 31.0825 13.911 30.8932C14.4579 30.8108 14.9761 30.8871 15.4482 31.1497C15.6929 31.286 15.8127 31.2199 15.9807 31.0509C16.8 30.2247 17.6295 29.4076 18.4549 28.5884C18.5296 28.5142 18.6023 28.4358 18.6832 28.3687C18.9167 28.1753 19.1625 28.1641 19.3776 28.3829C19.5937 28.6017 19.5732 28.8479 19.3755 29.0748C19.2598 29.2071 19.1297 29.3272 19.0048 29.4513C18.1722 30.2807 17.3386 31.11 16.506 31.9403C16.4907 31.9556 16.4835 31.98 16.4589 32.0248L16.46 32.0217ZM15.8598 33.428C15.8568 32.5498 15.1747 31.8711 14.292 31.867C13.3918 31.863 12.7005 32.5488 12.7036 33.4432C12.7067 34.3356 13.4031 35.0133 14.3073 35.0042C15.188 34.995 15.8639 34.3092 15.8598 33.429V33.428Z" fill="white"/>
<path d="M5.06191 19.87H1.58412V20.2739C1.58412 22.362 1.58412 24.45 1.58412 26.5381C1.58412 26.6439 1.59027 26.7497 1.58003 26.8545C1.5493 27.171 1.33834 27.3908 1.06491 27.3735C0.758712 27.3531 0.604076 27.1649 0.572329 26.8718C0.562088 26.7792 0.566185 26.6846 0.566185 26.591C0.566185 24.2801 0.566185 21.9692 0.566185 19.6583C0.566185 18.9826 0.683954 18.8687 1.37316 18.8687C2.70754 18.8687 4.0409 18.8687 5.37528 18.8687C5.89756 18.8687 6.05732 19.0233 6.05937 19.5291C6.06142 20.1742 6.06244 20.8193 6.05937 21.4645C6.05732 21.8624 5.86684 22.0984 5.55757 22.0984C5.2442 22.0984 5.06703 21.8746 5.06396 21.4635C5.06089 20.9384 5.06396 20.4144 5.06396 19.871L5.06191 19.87Z" fill="white"/>
<path d="M19.6725 15.9493H16.2091C16.2039 16.0775 16.1937 16.2006 16.1937 16.3238C16.1927 17.1327 16.1957 17.9407 16.1916 18.7496C16.1896 19.1119 15.9766 19.3459 15.6786 19.3327C15.3918 19.3205 15.2055 19.0986 15.2044 18.7476C15.2014 17.669 15.2014 16.5914 15.2044 15.5128C15.2055 15.121 15.3888 14.9378 15.7943 14.9358C17.2219 14.9307 18.6484 14.9307 20.076 14.9358C20.4815 14.9368 20.67 15.1149 20.672 15.5097C20.6782 16.975 20.6782 18.4393 20.672 19.9046C20.671 20.2678 20.4856 20.4724 20.1897 20.4795C19.8886 20.4866 19.6756 20.2577 19.6746 19.8944C19.6694 18.711 19.6725 17.5265 19.6725 16.3431C19.6725 16.2179 19.6725 16.0928 19.6725 15.9493Z" fill="white"/>
</svg>
