<svg width="37" height="34" viewBox="0 0 37 34" fill="none" xmlns="http://www.w3.org/2000/svg">
<path d="M23.9207 27.6877C24.1701 28.1893 24.3889 28.6306 24.6088 29.0699C24.9641 29.7813 25.3316 30.4864 25.6746 31.2041C26.3129 32.5344 25.4578 33.9603 24.0052 33.9758C22.5536 33.9914 21.102 33.98 19.6504 33.98C17.5046 33.98 15.3577 33.926 13.215 33.9987C11.688 34.0506 10.5245 32.5583 11.4183 30.9777C11.9497 30.0378 12.3975 29.0492 12.8821 28.0813C12.9381 27.9691 12.9849 27.8528 13.0582 27.6877C12.8699 27.6877 12.7325 27.6877 12.596 27.6877C9.50048 27.6877 6.40389 27.6877 3.30832 27.6877C1.29992 27.6866 0 26.3677 0 24.326C0 17.3389 0 10.3529 0 3.36581C0 1.31891 1.29483 0 3.30425 0C13.4267 0 23.5501 0 33.6726 0C35.7075 0 36.9982 1.31267 36.9992 3.38346C37.0003 10.357 37.0003 17.3306 36.9992 24.3042C36.9992 26.374 35.7064 27.6866 33.6716 27.6866C30.5882 27.6866 27.5049 27.6866 24.4225 27.6866H23.9217L23.9207 27.6877ZM35.7696 22.6384V22.2158C35.7696 15.939 35.7696 9.66228 35.7696 3.38554C35.7696 2.01782 35.0336 1.26075 33.7052 1.25971C29.8136 1.25971 25.923 1.25971 22.0314 1.25971H21.6079V22.6384H35.7696ZM20.3324 1.25867H19.9385C14.3897 1.25867 8.84187 1.25867 3.29305 1.25867C1.98194 1.25867 1.23375 2.01886 1.23273 3.34919C1.23273 9.63943 1.23273 15.9297 1.23273 22.2199V22.6218H20.3324V1.25867ZM1.25716 23.9272C1.0322 25.6169 2.11529 26.4529 3.47017 26.4487C13.556 26.4134 23.6407 26.43 33.7265 26.429C35.1496 26.429 35.9945 25.3728 35.7197 23.9272H1.25716ZM18.4737 32.7224C20.2713 32.7224 22.069 32.7244 23.8667 32.7224C24.5823 32.7213 24.8328 32.2955 24.506 31.6413C23.8942 30.4169 23.2773 29.1966 22.6727 27.9691C22.575 27.7708 22.4681 27.6825 22.237 27.6835C19.7461 27.6929 17.2552 27.6918 14.7633 27.6846C14.5434 27.6846 14.4243 27.7469 14.3225 27.9556C13.7209 29.1842 13.1009 30.4044 12.4902 31.6288C12.1553 32.3007 12.4118 32.7224 13.1569 32.7234C14.9292 32.7255 16.7014 32.7234 18.4726 32.7234L18.4737 32.7224Z" fill="white"/>
<path d="M28.6765 13.215C30.1536 13.215 31.6306 13.2109 33.1076 13.2202C33.2919 13.2212 33.5423 13.2368 33.6441 13.3531C33.7866 13.5151 33.8965 13.7852 33.8792 13.997C33.8548 14.293 33.6064 14.4633 33.301 14.4685C32.8134 14.4778 32.3248 14.4727 31.8372 14.4727C29.3585 14.4727 26.8788 14.4727 24.4001 14.4727C24.2973 14.4727 24.1945 14.4768 24.0917 14.4706C23.6988 14.4498 23.4392 14.1985 23.4382 13.8433C23.4382 13.4871 23.6978 13.2223 24.0907 13.2181C25.015 13.2088 25.9403 13.214 26.8656 13.214C27.4692 13.214 28.0729 13.214 28.6765 13.214V13.215Z" fill="white"/>
<path d="M28.6775 17.6193C27.2005 17.6193 25.7235 17.6235 24.2464 17.6141C24.0622 17.6131 23.8128 17.5975 23.71 17.4812C23.5675 17.3192 23.4575 17.0492 23.4748 16.8373C23.4982 16.5414 23.7476 16.371 24.053 16.3659C24.5925 16.3565 25.132 16.3617 25.6715 16.3617C28.0993 16.3617 30.5271 16.3617 32.9549 16.3617C33.0578 16.3617 33.1606 16.3575 33.2634 16.3627C33.6563 16.3825 33.9169 16.6338 33.9169 16.99C33.9169 17.3452 33.6573 17.6121 33.2644 17.6162C32.3656 17.6266 31.4657 17.6204 30.5668 17.6204C29.9378 17.6204 29.3076 17.6204 28.6786 17.6204L28.6775 17.6193Z" fill="white"/>
<path d="M28.6378 20.766C27.1476 20.766 25.6573 20.7681 24.168 20.765C23.7466 20.765 23.487 20.5593 23.4422 20.2146C23.3913 19.8241 23.6835 19.5146 24.1304 19.5094C24.8368 19.5021 25.5433 19.5073 26.2497 19.5073C28.536 19.5073 30.8223 19.5042 33.1087 19.5136C33.3031 19.5136 33.5667 19.5447 33.6736 19.6714C33.81 19.8324 33.8965 20.1169 33.865 20.3257C33.8171 20.6445 33.5392 20.767 33.2237 20.766C32.1833 20.7639 31.143 20.766 30.1027 20.766C29.614 20.766 29.1264 20.766 28.6378 20.766Z" fill="white"/>
<path d="M24.2088 6.92477C24.6719 7.55411 25.1249 8.17098 25.5779 8.78786C25.6471 8.88236 25.7204 8.97375 25.7815 9.07448C25.9769 9.39746 25.9189 9.74328 25.642 9.94683C25.3774 10.141 25.0313 10.1161 24.8155 9.83156C24.1721 8.98206 23.5318 8.1284 22.9323 7.24567C22.8274 7.09093 22.8427 6.72746 22.9526 6.56545C23.5369 5.70453 24.164 4.87372 24.789 4.04187C25.017 3.73759 25.3651 3.69605 25.642 3.89856C25.9301 4.10938 25.9912 4.47182 25.7591 4.80102C25.3621 5.36493 24.9458 5.9143 24.5386 6.46991C24.4317 6.6153 24.3268 6.76173 24.2098 6.92477H24.2088Z" fill="white"/>
<path d="M32.5305 6.9227C32.0266 6.23417 31.541 5.57471 31.0595 4.91318C30.7613 4.50297 30.7704 4.15299 31.0778 3.91102C31.3863 3.66801 31.7385 3.75109 32.0306 4.14676C32.5956 4.91007 33.1514 5.68064 33.7215 6.43875C33.9698 6.769 33.9729 7.07016 33.7245 7.40041C33.1473 8.16994 32.5844 8.95194 32.0093 9.72355C31.7314 10.0964 31.3812 10.168 31.0809 9.93437C30.7796 9.70071 30.7582 9.34346 31.0331 8.96336C31.5217 8.29041 32.0164 7.62161 32.5294 6.9227H32.5305Z" fill="white"/>
<path d="M27.8031 10.0652C27.3308 10.0673 27.06 9.68617 27.174 9.21468C27.4794 7.94563 27.795 6.67969 28.1055 5.41167C28.1961 5.04403 28.2775 4.67433 28.3752 4.30877C28.4811 3.91518 28.7783 3.71371 29.1132 3.79056C29.4695 3.8726 29.667 4.207 29.5703 4.6089C29.1743 6.24559 28.7692 7.8802 28.3701 9.51585C28.2897 9.8461 28.0973 10.0382 27.8041 10.0652H27.8031Z" fill="white"/>
<path d="M11.1109 11.9563C8.90193 11.9563 6.69197 11.9574 4.48303 11.9563C3.57197 11.9563 3.08437 11.4547 3.08437 10.5211C3.08335 8.54173 3.08335 6.56337 3.08437 4.58398C3.08437 3.65036 3.574 3.14772 4.48303 3.14772C8.90193 3.14772 13.3198 3.14668 17.7387 3.14772C18.6223 3.14772 19.117 3.65659 19.118 4.56321C19.1201 6.55506 19.1201 8.54692 19.118 10.5398C19.118 11.4516 18.6274 11.9553 17.7397 11.9563C15.5308 11.9584 13.3208 11.9563 11.1119 11.9563H11.1109ZM4.33543 10.6707H17.8547V4.42508H4.33543V10.6707Z" fill="white"/>
<path d="M10.4838 17.0025C10.4838 17.8021 10.4869 18.6007 10.4838 19.4004C10.4787 20.2519 9.97382 20.7629 9.13198 20.765C7.56536 20.7681 5.99875 20.7681 4.43213 20.765C3.59538 20.7629 3.08743 20.2468 3.08539 19.3952C3.08234 17.7834 3.08132 16.1716 3.08539 14.5599C3.08743 13.7384 3.60556 13.2171 4.41788 13.215C5.99773 13.2109 7.57656 13.2109 9.15641 13.215C9.96771 13.2171 10.4787 13.7384 10.4838 14.564C10.4889 15.3762 10.4848 16.1893 10.4848 17.0014L10.4838 17.0025ZM4.34357 14.4913V19.4762H9.2297V14.4913H4.34357Z" fill="white"/>
<path d="M11.7176 16.9703C11.7176 16.1706 11.7145 15.372 11.7176 14.5723C11.7216 13.7447 12.2316 13.2181 13.0378 13.2161C14.6299 13.2119 16.223 13.2109 17.815 13.2161C18.5978 13.2192 19.1119 13.7488 19.115 14.5526C19.1201 16.1779 19.1201 17.8021 19.115 19.4274C19.1119 20.2343 18.6009 20.7608 17.814 20.7639C16.2087 20.7702 14.6034 20.7702 12.9981 20.7639C12.2377 20.7608 11.7237 20.227 11.7176 19.4471C11.7104 18.6215 11.7165 17.7959 11.7155 16.9703H11.7176ZM12.9676 19.4793H17.8537V14.4934H12.9676V19.4793Z" fill="white"/>
</svg>
