<svg width="36" height="33" viewBox="0 0 36 33" fill="none" xmlns="http://www.w3.org/2000/svg">
<path d="M24.0517 28.1717C25.2627 28.1717 26.4117 28.1669 27.5597 28.1737C28.3354 28.1776 29.0374 28.4066 29.625 28.9289C30.1398 29.387 30.42 29.958 30.4142 30.6607C30.4094 31.2074 30.4162 31.755 30.4123 32.3017C30.4084 32.79 30.2116 32.9907 29.7345 32.9976C29.3961 33.0024 29.0568 32.9985 28.7184 32.9985C21.3038 32.9985 13.8893 32.9985 6.47471 32.9985C5.72327 32.9985 5.58655 32.8621 5.58558 32.1117C5.58558 31.6985 5.58558 31.2853 5.58558 30.8721C5.58558 29.4903 6.39714 28.4904 7.76331 28.2526C8.23551 28.1708 8.72516 28.1795 9.20802 28.1737C10.102 28.162 10.9969 28.1708 11.919 28.1708V25.0582C11.7687 25.0582 11.6282 25.0582 11.4885 25.0582C8.8037 25.0582 6.1179 25.063 3.43306 25.0562C1.76631 25.0513 0.496134 24.1148 0.11411 22.6072C0.0375115 22.3051 0.00454502 21.9836 0.00454502 21.6707C-0.000303001 15.581 -0.0012726 9.49024 0.00163621 3.40048C0.00260581 1.40369 1.39205 0.00233288 3.37973 0.00135836C13.1281 -0.000590678 22.8775 -0.000590678 32.6259 0.00233288C34.6097 0.00233288 35.9972 1.40759 35.9982 3.4073C36.0011 9.461 36.0001 15.5157 35.9982 21.5694C35.9982 23.6831 34.6368 25.0533 32.5221 25.0582C29.8373 25.064 27.1515 25.065 24.4667 25.0523C24.1341 25.0504 24.0342 25.14 24.043 25.4772C24.0662 26.3611 24.0507 27.2469 24.0507 28.1737L24.0517 28.1717ZM17.9606 23.8917C22.8222 23.8917 27.6838 23.8936 32.5454 23.8897C33.993 23.8887 34.8376 23.0282 34.8376 21.5723C34.8376 15.5069 34.8395 9.44151 34.8376 3.37611C34.8376 2.06246 33.9591 1.16883 32.6608 1.16883C22.8891 1.16591 13.1175 1.16591 3.3458 1.16883C2.04265 1.16883 1.16807 2.05856 1.16322 3.37124C1.15934 4.48901 1.16322 5.60776 1.16322 6.72553C1.16322 11.7092 1.16419 16.6929 1.16225 21.6766C1.16225 22.5254 1.48222 23.2202 2.23754 23.5993C2.62926 23.7952 3.11503 23.878 3.55911 23.88C8.36059 23.8995 13.1611 23.8917 17.9626 23.8917H17.9606ZM6.75589 31.8096H29.2517C29.2517 31.451 29.2362 31.1119 29.2555 30.7757C29.2885 30.2017 29.0161 29.8002 28.5274 29.5877C28.1938 29.4425 27.8089 29.3499 27.4463 29.349C21.1458 29.3353 14.8443 29.3392 8.54384 29.3373C8.05807 29.3373 7.58781 29.4181 7.22518 29.7485C7.02253 29.9327 6.82086 30.2026 6.77723 30.4609C6.70354 30.8945 6.75686 31.3496 6.75686 31.8106L6.75589 31.8096ZM22.8649 28.1503V25.0874H13.1262V28.1503H22.8649Z" fill="white"/>
<path d="M17.9897 20.5208C13.0312 20.5208 8.07165 20.5208 3.11309 20.5208C2.38492 20.5208 2.24433 20.3795 2.24433 19.6525C2.24433 14.2556 2.24433 8.85778 2.24433 3.4609C2.24433 2.56824 2.55751 2.25152 3.44082 2.25152C13.1407 2.25152 22.8406 2.25152 32.5406 2.25152C33.4471 2.25152 33.7545 2.56434 33.7555 3.48039C33.7555 8.87727 33.7555 14.2751 33.7555 19.672C33.7555 20.3727 33.6062 20.5218 32.9032 20.5218C27.932 20.5218 22.9618 20.5218 17.9907 20.5218L17.9897 20.5208ZM3.42337 19.327H32.5735V3.43946H3.42434V19.327H3.42337Z" fill="white"/>
<path d="M14.504 8.4972C14.2975 8.37247 14.1278 8.30425 14.0037 8.18731C13.6187 7.82186 13.2464 7.44278 12.877 7.06076C12.589 6.76256 12.5725 6.44487 12.812 6.19149C13.0612 5.92837 13.3957 5.94104 13.7021 6.2412C14.0987 6.63003 14.5118 7.00619 14.8628 7.43303C14.9888 7.58603 15.0305 7.89105 14.9752 8.08791C14.9297 8.2487 14.6824 8.35103 14.504 8.49623V8.4972Z" fill="white"/>
<path d="M22.8135 5.95566C22.9618 6.0726 23.1936 6.16908 23.2653 6.33475C23.3371 6.50042 23.3245 6.80349 23.2149 6.93018C22.798 7.41354 22.3423 7.86572 21.871 8.29645C21.6422 8.50597 21.3475 8.47869 21.1206 8.25065C20.8937 8.02261 20.8656 7.72636 21.074 7.49637C21.5026 7.02276 21.9651 6.57935 22.4247 6.13497C22.5052 6.05701 22.637 6.0346 22.8135 5.95566Z" fill="white"/>
<path d="M15.1265 14.8813C15.0072 15.0908 14.9461 15.2662 14.8298 15.39C14.4584 15.7866 14.0725 16.1696 13.6827 16.5467C13.3948 16.8245 13.0564 16.8313 12.8169 16.5847C12.5735 16.3343 12.5871 16.0098 12.8722 15.7164C13.2581 15.3179 13.6333 14.9037 14.057 14.548C14.2102 14.4193 14.5079 14.3687 14.7057 14.4193C14.8666 14.4603 14.9762 14.7059 15.1265 14.8813Z" fill="white"/>
<path d="M23.4001 16.2407C23.2828 16.3888 23.1887 16.613 23.0317 16.6754C22.86 16.7436 22.5624 16.7397 22.4373 16.6305C21.9564 16.2125 21.5074 15.7525 21.0769 15.2798C20.8665 15.0489 20.8927 14.7536 21.1148 14.5246C21.3378 14.2946 21.6325 14.2615 21.8643 14.472C22.3365 14.9017 22.7786 15.3656 23.2198 15.8285C23.3041 15.9162 23.3254 16.0643 23.4001 16.2407Z" fill="white"/>
<path d="M17.4206 5.4762C17.4206 5.18579 17.4099 4.89441 17.4235 4.60498C17.44 4.25708 17.6765 4.02807 17.9955 4.02612C18.3136 4.02417 18.5657 4.2522 18.5744 4.59718C18.5889 5.18969 18.5889 5.78415 18.5744 6.37665C18.5666 6.72553 18.3242 6.95064 18.0033 6.95259C17.6804 6.95454 17.4516 6.73138 17.4215 6.38542C17.4196 6.36106 17.4196 6.3367 17.4196 6.31234C17.4196 6.03362 17.4196 5.75491 17.4196 5.47717C17.4196 5.47717 17.4196 5.47717 17.4206 5.47717V5.4762Z" fill="white"/>
<path d="M12.1585 10.8068C12.4475 10.8068 12.7374 10.7961 13.0253 10.8097C13.357 10.8253 13.5741 11.0475 13.5868 11.3555C13.6003 11.6819 13.387 11.9509 13.0477 11.9616C12.4465 11.9821 11.8434 11.9801 11.2413 11.9636C10.9009 11.9548 10.6692 11.6917 10.6731 11.3779C10.677 11.0612 10.9097 10.8234 11.2549 10.8088C11.5554 10.7961 11.857 10.8058 12.1576 10.8058L12.1585 10.8068Z" fill="white"/>
<path d="M23.8898 10.8068C24.1787 10.8068 24.4686 10.7961 24.7566 10.8097C25.0989 10.8273 25.3296 11.0738 25.3257 11.3915C25.3219 11.6907 25.0998 11.9519 24.7799 11.9616C24.1787 11.9811 23.5756 11.9801 22.9735 11.9636C22.6264 11.9538 22.4092 11.7043 22.4121 11.3789C22.415 11.0485 22.6312 10.8234 22.9861 10.8088C23.2867 10.7961 23.5882 10.8058 23.8888 10.8068H23.8898Z" fill="white"/>
<path d="M18.5792 17.2805C18.5792 17.5709 18.5889 17.8623 18.5763 18.1518C18.5608 18.5094 18.301 18.7618 17.982 18.7511C17.6727 18.7404 17.4303 18.4977 17.4235 18.1527C17.4118 17.5719 17.4109 16.9901 17.4235 16.4103C17.4312 16.0448 17.6824 15.81 18.0169 15.8197C18.3349 15.8285 18.5628 16.0585 18.5763 16.4093C18.588 16.6997 18.5783 16.9901 18.5783 17.2805H18.5792Z" fill="white"/>
</svg>
